HIERARCHY
ROOT root
{
	OFFSET 0.000000 0.000000 0.000000
	CHANNELS 6 Xposition Yposition Zposition Zrotation Yrotation Xrotation
	JOINT lhip
	{
		OFFSET 0.058581 -0.082280 -0.017664
		CHANNELS 3 Zrotation Yrotation Xrotation
		JOINT lknee
		{
			OFFSET 0.043451 -0.386469 0.008037
			CHANNELS 3 Zrotation Yrotation Xrotation
			JOINT lankle
			{
				OFFSET -0.014790 -0.426874 -0.037428
				CHANNELS 3 Zrotation Yrotation Xrotation
				JOINT ltoe
				{
					OFFSET 0.041054 -0.060286 0.122042
					CHANNELS 3 Zrotation Yrotation Xrotation
					End Site
					{
						OFFSET 0.000000 0.000000 0.000000
					}
				}
			}
		}
	}
	JOINT rhip
	{
		OFFSET -0.060310 -0.090513 -0.013543
		CHANNELS 3 Zrotation Yrotation Xrotation
		JOINT rknee
		{
			OFFSET -0.043257 -0.383688 -0.004843
			CHANNELS 3 Zrotation Yrotation Xrotation
			JOINT rankle
			{
				OFFSET 0.019056 -0.420046 -0.034562
				CHANNELS 3 Zrotation Yrotation Xrotation
				JOINT rtoe
				{
					OFFSET -0.034840 -0.062106 0.130323
					CHANNELS 3 Zrotation Yrotation Xrotation
					End Site
					{
						OFFSET 0.000000 0.000000 0.000000
					}
				}
			}
		}
	}
	JOINT lowerback
	{
		OFFSET 0.004439 0.124404 -0.038385
		CHANNELS 3 Zrotation Yrotation Xrotation
		JOINT upperback
		{
			OFFSET 0.004488 0.137956 0.026820
			CHANNELS 3 Zrotation Yrotation Xrotation
			JOINT chest
			{
				OFFSET -0.002265 0.056032 0.002855
				CHANNELS 3 Zrotation Yrotation Xrotation
				JOINT lowerneck
				{
					OFFSET -0.013390 0.211636 -0.033468
					CHANNELS 3 Zrotation Yrotation Xrotation
					JOINT upperneck
					{
						OFFSET 0.010113 0.088937 0.050410
						CHANNELS 3 Zrotation Yrotation Xrotation
						End Site
						{
							OFFSET 0.000000 0.000000 0.000000
						}
					}
				}
				JOINT lclavicle
				{
					OFFSET 0.071702 0.114000 -0.018898
					CHANNELS 3 Zrotation Yrotation Xrotation
					JOINT lshoulder
					{
						OFFSET 0.122921 0.045205 -0.019046
						CHANNELS 3 Zrotation Yrotation Xrotation
						JOINT lelbow
						{
							OFFSET 0.255332 -0.015649 -0.022946
							CHANNELS 3 Zrotation Yrotation Xrotation
							JOINT lwrist
							{
								OFFSET 0.265709 0.012698 -0.007375
								CHANNELS 3 Zrotation Yrotation Xrotation
								End Site
								{
									OFFSET 0.000000 0.000000 0.000000
								}
							}
						}
					}
				}
				JOINT rclavicle
				{
					OFFSET -0.082954 0.112472 -0.023707
					CHANNELS 3 Zrotation Yrotation Xrotation
					JOINT rshoulder
					{
						OFFSET -0.113228 0.046853 -0.008472
						CHANNELS 3 Zrotation Yrotation Xrotation
						JOINT relbow
						{
							OFFSET -0.260127 -0.014369 -0.031269
							CHANNELS 3 Zrotation Yrotation Xrotation
							JOINT rwrist
							{
								OFFSET -0.269108 0.006794 -0.006027
								CHANNELS 3 Zrotation Yrotation Xrotation
								End Site
								{
									OFFSET 0.000000 0.000000 0.000000
								}
							}
						}
					}
				}
			}
		}
	}
}
MOTION
Frames: 14
Frame Time: 0.033333
0.027547 -0.610592 0.987988 -179.598694 -1.798694 89.961541 -1.631165 1.989493 3.462995 -4.356192 -6.187442 -0.681911 4.141309 8.141217 -15.947489 0.000000 -0.000000 0.000000 -0.745837 -0.747193 -2.991695 0.872376 -0.746134 10.439750 2.556819 -5.566767 -17.098131 0.000000 -0.000000 0.000000 0.859401 0.735085 1.542239 -0.865054 -0.665650 -4.016709 -3.236296 -1.521052 2.663004 3.467629 -5.689312 1.120424 -2.473775 -12.065356 15.431479 -25.066180 0.929367 2.782886 -60.048796 -7.352127 15.826038 1.741173 -27.120847 22.003771 -0.929911 -5.746748 4.540386 22.356804 4.721813 0.143651 63.080030 4.220943 18.037503 -2.527056 22.031222 11.385025 3.703749 6.157267 -1.670446 
0.027978 -0.610818 0.987699 -179.494245 -1.725916 90.112959 -1.487003 1.854978 3.276558 -4.453141 -6.233428 -0.630390 4.382027 8.229941 -15.922595 0.000000 -0.000000 0.000000 -0.639313 -0.509294 -3.069552 0.992450 -0.533516 10.371202 2.642728 -5.495405 -17.215526 0.000000 -0.000000 0.000000 0.829305 0.655538 1.303437 -0.837649 -0.755936 -4.000500 -3.229409 -1.513086 2.678043 3.163712 -5.318555 2.476296 -1.374057 -11.805039 14.431577 -24.678647 0.920610 2.947856 -60.548400 -7.289547 15.853966 1.944071 -27.195620 22.011179 -0.863928 -5.520807 4.437319 22.172677 4.687127 0.334086 63.468230 4.218310 17.885635 -2.576946 22.184834 11.639584 3.645214 6.059894 -1.678782 
0.028185 -0.611344 0.987756 -179.546439 -1.640472 90.212622 -1.402462 1.816855 3.097808 -4.474899 -6.211087 -0.516895 4.428431 8.265909 -15.947177 0.000000 -0.000000 0.000000 -0.519881 -0.357715 -3.246632 1.081120 -0.469832 10.449378 2.589216 -5.273862 -17.276702 0.000000 -0.000000 0.000000 0.952361 0.625450 1.200672 -0.843151 -0.732807 -4.047654 -3.285827 -1.473342 2.664839 3.092041 -5.263368 2.851835 -1.053928 -11.816467 14.143299 -24.567443 0.917061 2.960444 -60.779874 -7.255303 15.921607 2.097250 -27.088627 21.984741 -0.946025 -5.439687 4.489662 22.085347 4.621901 0.363421 63.784832 4.161118 17.866536 -2.622759 22.088777 11.682708 3.858540 5.878101 -1.913063 
0.028795 -0.611409 0.987914 -179.408748 -1.565468 90.152820 -1.303012 1.928330 3.006456 -4.461649 -6.335642 -0.132709 4.365677 8.084028 -16.192578 0.000000 -0.000000 0.000000 -0.365984 -0.519027 -3.213254 1.186375 -0.648629 10.487211 2.500374 -5.054644 -17.424949 0.000000 -0.000000 0.000000 1.008767 0.549103 1.168185 -0.825454 -0.845391 -4.086389 -3.250643 -1.486820 2.722420 3.171754 -5.232769 2.943280 -1.194221 -11.756710 14.250720 -24.606611 0.975057 2.912588 -60.862941 -7.214349 15.924102 2.094676 -26.969715 22.001127 -0.933447 -5.466617 4.561698 22.080100 4.554627 0.413793 64.005680 4.108649 17.856954 -2.401018 22.044259 11.587860 3.662415 6.015149 -2.363208 
0.028890 -0.611522 0.987943 -179.401323 -1.580442 90.142718 -1.326055 1.909298 3.000661 -4.449742 -6.361735 -0.086506 4.381854 8.069148 -16.174893 0.000000 -0.000000 0.000000 -0.351532 -0.483255 -3.200181 1.131700 -0.513771 10.482692 2.493952 -5.042041 -17.493322 0.000000 -0.000000 0.000000 1.013127 0.538264 1.144914 -0.828460 -0.868684 -4.036442 -3.261153 -1.498993 2.755708 3.206604 -5.174459 2.796497 -1.296779 -11.728568 14.308501 -24.616049 0.976842 2.884196 -60.892939 -7.229932 15.928954 2.132597 -26.931186 21.939821 -0.870771 -5.473461 4.598749 22.114354 4.561392 0.431946 64.038591 4.137080 17.927522 -2.465049 22.018374 11.606405 3.691391 6.013401 -2.234286 
0.028922 -0.611790 0.987938 -179.452301 -1.577366 90.060167 -1.349370 1.952465 3.071208 -4.429613 -6.414438 -0.040818 4.419385 8.107269 -16.207283 0.000000 -0.000000 0.000000 -0.355408 -0.380049 -3.066361 1.076353 -0.192121 10.438655 2.513727 -4.848153 -17.679930 0.000000 -0.000000 0.000000 1.057092 0.532946 1.202567 -0.816207 -0.870820 -3.927792 -3.256204 -1.491383 2.803619 3.261449 -5.043883 2.603526 -1.425506 -11.665673 14.295632 -24.612129 0.963309 2.785848 -60.980302 -7.226856 15.972089 2.123924 -26.944622 21.964938 -0.817255 -5.426120 4.676740 22.090347 4.535116 0.353235 64.127574 4.137478 17.959786 -2.457971 21.962346 11.650438 3.686963 5.918514 -2.131495 
0.029132 -0.611927 0.987978 -179.532938 -1.549030 89.981571 -1.314233 1.958028 3.189781 -4.426292 -6.402281 -0.080049 4.453132 8.143210 -16.230673 0.000000 -0.000000 0.000000 -0.324469 -0.366730 -3.022642 1.120916 -0.223535 10.500157 2.485599 -4.815561 -17.682277 0.000000 -0.000000 0.000000 1.095409 0.514585 1.248278 -0.795276 -0.827080 -3.839160 -3.211720 -1.456674 2.841862 3.191159 -4.931978 2.388830 -1.511691 -11.648265 14.452612 -24.688767 0.855195 2.788694 -61.006842 -7.230339 16.008608 2.174139 -26.910687 21.931329 -0.816425 -5.498567 4.635614 22.214304 4.646353 0.466489 64.035658 4.102477 17.978014 -2.520644 21.948810 11.698475 3.589679 5.939956 -2.045560 
0.029601 -0.612156 0.987924 -179.496309 -1.535464 89.938045 -1.263376 1.958017 3.149850 -4.433115 -6.382539 0.054350 4.409699 8.123702 -16.299129 0.000000 -0.000000 0.000000 -0.260231 -0.367830 -3.006332 1.077108 -0.162778 10.517908 2.455887 -4.820324 -17.723756 0.000000 -0.000000 0.000000 1.110976 0.426123 1.397459 -0.776505 -0.899428 -3.824586 -3.166132 -1.482575 2.850742 3.213048 -4.726360 2.211213 -1.665961 -11.419294 14.433467 -24.733435 0.915939 2.692976 -61.043533 -7.232373 16.012229 2.166244 -26.850514 22.006006 -0.791837 -5.467992 4.685454 22.296961 4.611662 0.415097 64.005948 4.148368 18.034783 -2.580086 21.873822 11.627748 3.461206 5.869918 -2.039461 
0.030082 -0.612594 0.987870 -179.538400 -1.494183 89.908827 -1.183220 1.958694 3.093463 -4.454047 -6.366734 0.183093 4.415207 8.126413 -16.338445 0.000000 -0.000000 0.000000 -0.158475 -0.340288 -3.088970 1.069335 -0.167668 10.670591 2.447483 -4.891079 -17.717711 0.000000 -0.000000 0.000000 1.104204 0.401800 1.593045 -0.739102 -0.877753 -3.821477 -3.077304 -1.476688 2.738931 3.182790 -4.249306 2.131427 -1.616594 -10.936582 14.580556 -24.722744 0.864324 2.752215 -61.167434 -7.243803 16.006917 2.194014 -26.848411 22.075121 -0.897516 -5.538409 4.659715 22.395501 4.586523 0.510562 63.886084 4.197284 18.008661 -2.520341 21.881641 11.581611 3.644186 6.005505 -2.122939 
0.030406 -0.612685 0.987752 -179.692105 -1.446983 89.822141 -1.100252 2.027435 3.177962 -4.486495 -6.366693 0.221106 4.437155 8.151029 -16.379427 0.000000 -0.000000 0.000000 -0.129855 -0.344242 -3.081291 1.104214 -0.086961 10.796343 2.466106 -4.696349 -17.795669 0.000000 -0.000000 0.000000 1.174207 0.416671 1.741336 -0.685334 -0.846403 -3.715329 -2.970202 -1.492260 2.647593 3.103422 -3.395104 2.273722 -1.694014 -9.948420 14.616666 -24.774104 0.768230 2.799254 -61.337706 -7.200834 15.983977 2.279193 -26.854693 22.071928 -0.884884 -5.570185 4.552473 22.410207 4.632035 0.706651 63.786294 4.345211 17.979873 -2.591332 21.831499 11.469088 3.629456 6.109044 -2.227907 
0.030985 -0.613138 0.988022 -179.745455 -1.378959 89.887072 -0.998498 1.991509 2.993940 -4.491686 -6.318676 0.380511 4.366138 8.177018 -16.402091 0.000000 -0.000000 0.000000 0.034122 -0.258767 -3.263503 1.068134 0.095631 10.891771 2.541518 -4.900060 -17.745564 0.000000 -0.000000 0.000000 1.259053 0.373124 1.789012 -0.588405 -0.759723 -3.751227 -2.873135 -1.528876 2.692916 2.909414 -2.580340 1.361431 -2.676284 -9.163288 15.605998 -24.989913 0.693550 2.784015 -61.259870 -7.261600 16.095579 2.185342 -26.730720 22.154199 -0.786518 -5.595983 4.623137 22.775671 4.673537 0.813482 63.396572 4.459771 18.137628 -2.813904 21.608288 10.984440 3.355346 6.070145 -2.163645 
0.031551 -0.613480 0.988151 -179.812919 -1.336067 89.896590 -0.933178 1.897457 2.897506 -4.482639 -6.229402 0.517076 4.319840 8.221874 -16.375562 0.000000 -0.000000 0.000000 0.108349 -0.290152 -3.472651 1.211024 -0.136251 11.132975 2.509110 -5.150291 -17.683586 0.000000 -0.000000 0.000000 1.412087 0.308973 1.887712 -0.554635 -0.671776 -3.793867 -2.817762 -1.540876 2.807144 2.532677 -1.751344 0.972512 -3.571359 -8.298306 16.348891 -25.031561 0.618537 2.731539 -61.305319 -7.333703 16.211962 2.080243 -26.695505 22.265361 -0.843090 -5.655630 4.589100 22.983136 4.664111 0.753136 63.213970 4.599984 18.281767 -2.839815 21.387000 10.700517 3.396967 6.121092 -2.131603 
0.032183 -0.613579 0.987786 -179.810281 -1.296738 89.780316 -0.851175 1.858814 2.894379 -4.496823 -6.188387 0.763900 4.554476 8.267286 -16.535574 0.000000 -0.000000 0.000000 0.196147 -0.312548 -3.407640 1.158972 -0.057315 11.283219 2.376833 -4.927600 -17.841268 0.000000 -0.000000 0.000000 1.485626 0.289503 1.971070 -0.526466 -0.792624 -3.659988 -2.688126 -1.452440 2.721008 2.847391 0.206393 2.463630 -2.475363 -5.789947 15.603397 -24.874899 0.296709 3.012723 -61.589439 -7.331130 16.070598 2.188377 -26.830766 22.258091 -0.857264 -5.397477 4.598123 22.886910 4.676266 1.194539 63.307479 4.955759 18.047994 -3.003279 21.354678 10.717239 3.594801 5.982136 -2.342499 
0.032750 -0.613789 0.987728 -179.745095 -1.311876 89.723517 -0.826155 1.809439 2.834390 -4.509556 -6.230930 0.972595 4.537298 8.258744 -16.562462 0.000000 -0.000000 0.000000 0.238239 -0.314935 -3.402637 1.089172 -0.005162 11.383079 2.406361 -4.830289 -17.960165 0.000000 -0.000000 0.000000 1.645172 0.213030 2.111759 -0.566056 -0.830660 -3.635003 -2.702854 -1.389985 2.756198 2.743868 1.288056 2.737908 -2.475374 -4.608413 15.764738 -24.813999 0.252720 2.924387 -61.705328 -7.407681 16.086408 2.262131 -26.813438 22.275004 -0.771583 -5.467551 4.617535 22.933524 4.546832 1.228340 63.332554 5.093504 18.067206 -3.112287 21.352139 10.624627 3.560519 5.985276 -2.432563 
